/* XPM */
static char *bitcoin32[] = {
/* columns rows colors chars-per-pixel */
"32 32 197 2 ",
"   c #D65757",
".  c #D0595B",
"X  c #D85B5A",
"o  c #E74F4B",
"O  c #E94F4A",
"+  c #E7514D",
"@  c #E8504C",
"#  c #E75652",
"$  c #E85652",
"%  c #E75A56",
"&  c #E85955",
"*  c #E75E5A",
"=  c #E85C58",
"-  c #C77A59",
";  c #E7605C",
":  c #D25F60",
">  c #D47374",
",  c #E96A66",
"<  c #E76C68",
"1  c #EA6E6B",
"2  c #EA736F",
"3  c #EB7571",
"4  c #6FC355",
"5  c #6FC458",
"6  c #72C456",
"7  c #74C55B",
"8  c #7AC762",
"9  c #7EC967",
"0  c #DDC237",
"q  c #FEC32E",
"w  c #E2C135",
"e  c #EEC232",
"r  c #F4C134",
"t  c #F6C63C",
"y  c #FCC53B",
"u  c #CA8464",
"i  c #E8807C",
"p  c #84C24F",
"a  c #8FC24C",
"s  c #94C24A",
"d  c #80C251",
"f  c #81C869",
"g  c #8ACC76",
"h  c #C5C85D",
"j  c #FBC742",
"k  c #FBC846",
"l  c #FBCA4E",
"z  c #F7CB57",
"x  c #FBCB52",
"c  c #FACC59",
"v  c #CBCA64",
"b  c #C7D17C",
"n  c #F7CD62",
"m  c #F8CF64",
"M  c #F7D16C",
"N  c #EFD174",
"B  c #FDD779",
"V  c #3DB1B7",
"C  c #3CB1B8",
"Z  c #4E8DAF",
"A  c #5B88A7",
"S  c #659EBD",
"D  c #759EB9",
"F  c #46B0AD",
"G  c #48B1AC",
"H  c #39B6C9",
"J  c #3DB8CD",
"K  c #02ADE4",
"L  c #09AFE4",
"P  c #12AEE0",
"I  c #0AB0E6",
"U  c #13B2E4",
"Y  c #1EB4E4",
"T  c #2CB8E4",
"R  c #33BBE5",
"E  c #3DBDE5",
"W  c #41BDE3",
"Q  c #48BFE3",
"!  c #4DC2E7",
"~  c #57C5E6",
"^  c #58C5E6",
"/  c #59C5E8",
"(  c #5FC8E8",
")  c #62C7E6",
"_  c #64C8E6",
"`  c #6DC9E7",
"'  c #68C9E8",
"]  c #76CDE7",
"[  c #7DCFE7",
"{  c #7BCFEA",
"}  c #8E8DA0",
"|  c #959DAE",
" . c #90AABE",
".. c #DA8483",
"X. c #DB9C8C",
"o. c #E78482",
"O. c #EC8482",
"+. c #EA8986",
"@. c #E69693",
"#. c #EE9D9A",
"$. c #E9A19F",
"%. c #EBA4A1",
"&. c #EAA8A5",
"*. c #EDAEAC",
"=. c #E0B0A5",
"-. c #F3B1AF",
";. c #EAB5B2",
":. c #E6B8B7",
">. c #E6BCBA",
",. c #F1BBB8",
"<. c #93CF81",
"1. c #98D187",
"2. c #9AD289",
"3. c #A4D694",
"4. c #A9D69C",
"5. c #ACDA9F",
"6. c #97C9BB",
"7. c #AEDBA1",
"8. c #BEDDB4",
"9. c #C4D280",
"0. c #C3D58D",
"q. c #CED488",
"w. c #D6D785",
"e. c #D9DB94",
"r. c #EFD581",
"t. c #F6D582",
"y. c #F5D78B",
"u. c #FCDB88",
"i. c #F4DA95",
"p. c #F3DB9C",
"a. c #C0DEB6",
"s. c #C7DDBC",
"d. c #F2DFB0",
"f. c #F1E2BD",
"g. c #90B2C6",
"h. c #9FC8D8",
"j. c #A2CEC0",
"k. c #B9D3DE",
"l. c #87CFE6",
"z. c #8CD3E8",
"x. c #95D3E6",
"c. c #90D4E8",
"v. c #9AD7E9",
"b. c #9DD8EC",
"n. c #A6D9E9",
"m. c #ACDCED",
"M. c #B3DEEB",
"N. c #B9E1ED",
"B. c #B4E6F5",
"V. c #EBC9C8",
"C. c #ECD2D1",
"Z. c #E6DDD0",
"A. c #EADEDD",
"S. c #F2D5D4",
"D. c #F3DCDB",
"F. c #CAE2C4",
"G. c #CFE5C9",
"H. c #D3E5CD",
"J. c #D7E7D2",
"K. c #D8E6D3",
"L. c #D8E9D3",
"P. c #DEEADA",
"I. c #EEE4CD",
"U. c #F1E5C6",
"Y. c #F0E6CE",
"T. c #F1E8CF",
"R. c #EEE6D6",
"E. c #E2E9DF",
"W. c #EEEADE",
"Q. c #F6E0DF",
"!. c #C7DFE6",
"~. c #CEE1E7",
"^. c #C0E1EA",
"/. c #D7E7EB",
"(. c #D6E9EF",
"). c #DEEAED",
"_. c #C0EAF7",
"`. c #E5E6E7",
"'. c #EDE5E4",
"]. c #E3EAE0",
"[. c #ECEBE5",
"{. c #E6E9EA",
"}. c #EDEDED",
"|. c #F4E3E3",
" X c #F0EDE5",
".X c #F1EEED",
"XX c #FAEFEF",
"oX c #E3EFF1",
"OX c #EEEEF0",
"+X c #F0EFF1",
"@X c #EFF0F0",
"#X c #F3F3F3",
"$X c #F9F9F6",
"%X c #F8F7F8",
"&X c #F7F8F8",
"*X c #FAFAFA",
"=X c None",
/* pixels */
"=X=X=X=X=X=X=X=X=X=X=X=X#X#X#X#X.X#X#X#X=X=X=X=X=X=X=X=X=X=X=X=X",
"=X=X=X=X=X=X=X=X=X#X#X.X.X.X.XN.^.}.}..X.X+X#X=X=X=X=X=X=X=X=X=X",
"=X=X=X=X=X=X=X#X@X.X.X.X.X{.[ P P [ ).}..X.X@X+X#X=X=X=X=X=X=X=X",
"=X=X=X=X=X=X#X.X.X.X{.n.( T L K K K T ~ v./..X[.@X#X=X=X=X=X=X=X",
"=X=X=X=X=X+X.X.X{.v.R K U W T K K T ! U K T l.)..X+X+X=X=X=X=X=X",
"=X=X=X=X#X{.z._ ! L T z.~.].!.` ` !.`.~.x.E K ! _ z.{.+X=X=X=X=X",
"=X=X=X#X.Xc.K K K _ /.}.}.}..X.X}.}.}.}.}.).] K K K c..X#X=X=X=X",
"=X=X#X.X.X` K K K M.@X}.}.}.{.@X.X}.}.}.}.+XM.L K K _ .X.X#X=X=X",
"=X=X.X.X}.~ K I ! ).#XOX@X@X@X@X@X@XOXOXOX#X).! L K E ).}..X=X=X",
"=X#X.X.Xk.P ( N.).{.H.H.H.P.@X@X@X@XE.H.H.H.[.oXN.{ P h..X}.#X=X",
"=XOX}.'...} (.#X#XL.9 8 7 3.@X@X+X#X7.7 7 9 G.#X#XoX| > A..X@X=X",
"=X.XOXV.& %.#X#X#XL.8 5 4 3.#X#X#X#X5.4 5 7 G.#X#X#X,.$ ;.@X.X=X",
"OX.X@X$.* S.#X#X#XL.8 5 4 3.#X#X#X#X7.6 6 6 G.#X#X#X'., +.[..XOX",
"@X.XOX3 2 .X#X#X@XP.f 5 4 3.#X#X#X#X5.4 6 f L.+X#X#X#X+.< '..XOX",
"@X[.&.& < D.#X#X@X[.v p 4 3.#X&X#X&X5.4 6 h W.OX#X#XD.2 # $.}..X",
"@XC.* + o #.%X#X@X Xc w s 3.$X$X*X&X7.a 0 x W.OX#X&X#.o + * C.OX",
"OXC.* O + #.%X#X#X Xc q e w.*X*X*X&Xe.e q x W.+X#X#X#.@ + ; C.@X",
".X}.*.& < Q.%X%X#X Xz q q B *X*X*X*Xu.q q l  X#X#X*XQ.3 & &.}..X",
".X}.}.o.2 XX*X#X#X.Xn r r N *X*X*X*Xr.e r z  X#X#X*X*XO.1 '.}.}.",
"}.}.+X=.- Z.%X+X+X.Xj.F V H B.*X*X_.J C G 6..X+X#X$X'.u X.}.}.}.",
"=X.X}.H.8 4.}.}..X}.m.I K K S *.-.D K K K b..X}..X.X8.7 s.@X.X=X",
"=X.X}.}.1.9 K..X.X.X}.' K Z . + @ X A K / {.}.}.OXE.g g ]..X.X=X",
"=X}.}.OXG.8 1.F.E.}..X).g.: O o @ O X  .(.}..XE.F.3.7 8.}..X}.=X",
"=X=X}.}.}.3.4 5 <.E.}.}.A.>.@.o.o.@.:.A.}.}.`.<.7 5 1.`..X.X=X=X",
"=X=X=X.X.X4.4 5 5 F.}.{.`.{.{.`.`.`.{.`.{.OXF.7 6 4 4.}.}.}.=X=X",
"=X=X=X}..X8.7 5 6 b I.}.{.}.}.[.}.}.}.}.}.R.q.6 4 7 8..X}.=X=X=X",
"=X=X=X=X{.}.8.4.0.j k y.U. XY.t.B I.}.Y.i.l t b 4.a.`.}.=X=X=X=X",
"=X=X=X=X=X}.OXOX}.f.M y y c l q q x c y y n d.[.OXOX}.=X=X=X=X=X",
"=X=X=X=X=X=X[..X}.}.[.U.i.M y q r y m y.f.`..X.X[.}.=X=X=X=X=X=X",
"=X=X=X=X=X=X=X=X}..XOXOX}.}.p.k j p.[..XOX}..X}.=X=X=X=X=X=X=X=X",
"=X=X=X=X=X=X=X=X=X}.[.}.}.}.[.Y.I.}.OX.X.X}.}.=X=X=X=X=X=X=X=X=X",
"=X=X=X=X=X=X=X=X=X=X=X=X{.}.{.}.}.}.}.{.=X=X=X=X=X=X=X=X=X=X=X=X"
};
