/* XPM */
static char *bitcoin64[] = {
/* columns rows colors chars-per-pixel */
"64 64 256 2 ",
"   c #BA636A",
".  c #AF6872",
"X  c #CA5C5F",
"o  c #D25D5D",
"O  c #DA5C5A",
"+  c #E74F4B",
"@  c #E94E4B",
"#  c #E7514D",
"$  c #E9514D",
"%  c #E75551",
"&  c #E75A55",
"*  c #E95B57",
"=  c #E75E5A",
"-  c #E85F5A",
";  c #E95651",
":  c #E6625D",
">  c #E8625E",
",  c #C55E62",
"<  c #C26368",
"1  c #D47D7F",
"2  c #E76561",
"3  c #E86662",
"4  c #EA6A66",
"5  c #EB6D69",
"6  c #E76864",
"7  c #E7726D",
"8  c #EA736F",
"9  c #E77772",
"0  c #EB7975",
"q  c #6FC456",
"w  c #6FC458",
"e  c #70C457",
"r  c #7CC354",
"t  c #71C459",
"y  c #7AC763",
"u  c #7DC866",
"i  c #D8C139",
"p  c #FDC22E",
"a  c #EBC134",
"s  c #E4C237",
"d  c #F5C334",
"f  c #FDC331",
"g  c #FCC53B",
"h  c #A88D52",
"j  c #B28451",
"k  c #BF855D",
"l  c #AD955D",
"z  c #86BF4D",
"x  c #9FBF49",
"c  c #88B47E",
"v  c #98B675",
"b  c #C99C7D",
"n  c #E7817D",
"m  c #EC817E",
"M  c #98C24E",
"N  c #87C351",
"B  c #98C75B",
"V  c #ABC247",
"C  c #BCC345",
"Z  c #B4C247",
"A  c #82CA6C",
"S  c #87CC72",
"D  c #8DCC76",
"F  c #8FCE7C",
"G  c #92CF7E",
"H  c #C3C140",
"J  c #EFC743",
"K  c #FAC741",
"L  c #FBC846",
"P  c #F9C84A",
"I  c #F9CB52",
"U  c #FACC59",
"Y  c #F4CC58",
"T  c #C7C865",
"R  c #D2CD76",
"E  c #F7CE63",
"W  c #F4CF6C",
"Q  c #F8D16D",
"!  c #F9D065",
"~  c #F4D37B",
"^  c #F7D479",
"/  c #3995BC",
"(  c #66859F",
")  c #79B48A",
"_  c #6AB396",
"`  c #4E8CAD",
"'  c #478FB3",
"]  c #4092B8",
"[  c #4DB2AB",
"{  c #5CB3A1",
"}  c #50B2AA",
"|  c #2A9CC8",
" . c #3198C1",
".. c #19ADDD",
"X. c #3FA2C7",
"o. c #00ADE4",
"O. c #08AFE4",
"+. c #0DB1E4",
"@. c #14B2E3",
"#. c #1AB4E4",
"$. c #24B7E5",
"%. c #2DB9E4",
"&. c #26B8E5",
"*. c #34BAE4",
"=. c #3DBCE4",
"-. c #4EBAC5",
";. c #6DAFC8",
":. c #41BFE5",
">. c #59C0CF",
",. c #72C0DE",
"<. c #4AC1E6",
"1. c #55C3E5",
"2. c #58C5E6",
"3. c #56C7EC",
"4. c #62C6E4",
"5. c #64C8E6",
"6. c #6BCAE5",
"7. c #68C9E8",
"8. c #71CAE5",
"9. c #7CCEE6",
"0. c #78CDE8",
"q. c #74D1EF",
"w. c #86B480",
"e. c #BAA1A9",
"r. c #CD8D90",
"t. c #E88F8B",
"y. c #E88682",
"u. c #ED918D",
"i. c #EA9D99",
"p. c #ED9895",
"a. c #EAA19D",
"s. c #E8A5A1",
"d. c #E6AFAD",
"f. c #EAAEAA",
"g. c #E9A8A6",
"h. c #EFB1AE",
"j. c #E6B1AF",
"k. c #EBB5B2",
"l. c #EAB9B6",
"z. c #EABCB9",
"x. c #E6BBBA",
"c. c #F1BBB9",
"v. c #92CF80",
"b. c #9CD28B",
"n. c #A3D492",
"m. c #A9D69A",
"M. c #A7D699",
"N. c #AED8A1",
"B. c #B1D9A4",
"V. c #B6DCAA",
"C. c #B9DCAE",
"Z. c #BEDDB3",
"A. c #F5D583",
"S. c #F7DA8A",
"D. c #F5D888",
"F. c #EFDB9D",
"G. c #F3DA96",
"H. c #F4DC9C",
"J. c #C5C8A2",
"K. c #C0DEB6",
"L. c #D5D7B2",
"P. c #F2DCA3",
"I. c #F1DFAC",
"U. c #EAC0BD",
"Y. c #F0DFB1",
"T. c #C1E0B8",
"R. c #F5E2AA",
"E. c #FBE3A6",
"W. c #EDE7BC",
"Q. c #F0E0B1",
"!. c #FBE7B4",
"~. c #F0E2BC",
"^. c #91C6DC",
"/. c #88CEE3",
"(. c #85D1E6",
"). c #8FD2E6",
"_. c #89D3E9",
"`. c #81D1E9",
"'. c #93D3E6",
"]. c #9AD5E6",
"[. c #93D5EA",
"{. c #98D7EA",
"}. c #ABDAE6",
"|. c #A4D9E8",
" X c #ABDCEB",
".X c #B2DEEB",
"XX c #BADFE9",
"oX c #BEDCE5",
"OX c #BEE0E9",
"+X c #CEC8CC",
"@X c #CFD8DE",
"#X c #DCD3D3",
"$X c #E9C7C5",
"%X c #F2C4C2",
"&X c #F2CAC8",
"*X c #E7D5CF",
"=X c #EBD0CE",
"-X c #E0DFC4",
";X c #E5D3D3",
":X c #EBD5D3",
">X c #E5DBDB",
",X c #F3DCDB",
"<X c #F7D4D3",
"1X c #CBE5C4",
"2X c #CFE3C8",
"3X c #D3E4CD",
"4X c #DDE2CF",
"5X c #D6E5D1",
"6X c #DAE6D5",
"7X c #DBEAD6",
"8X c #DDEBD9",
"9X c #DDE7D9",
"0X c #EFE3C2",
"qX c #EFE6CD",
"wX c #F6E9C7",
"eX c #E3E6D3",
"rX c #EFE7D3",
"tX c #E1EADE",
"yX c #EEEADF",
"uX c #F2ECD5",
"iX c #F6E7D9",
"pX c #C6E0E7",
"aX c #CFE2E7",
"sX c #C5E2EA",
"dX c #CBE4EB",
"fX c #D7E2E6",
"gX c #DBE4E6",
"hX c #D4E6EC",
"jX c #DDE8EB",
"kX c #CAECF6",
"lX c #DEECF0",
"zX c #DFF3F9",
"xX c #E6E6E6",
"cX c #EBE6E5",
"vX c #E5EAE2",
"bX c #EDEBE4",
"nX c #E5E9EA",
"mX c #EDEDED",
"MX c #F5E3E3",
"NX c #F7E7E8",
"BX c #F1EEEE",
"VX c #FBEEEE",
"CX c #F1EEE5",
"ZX c #EFF0EF",
"AX c #F1F1EE",
"SX c #EEEEF0",
"DX c #F0EEF0",
"FX c #EFF0F0",
"GX c #EBF8FB",
"HX c #F3F3F3",
"JX c #F6F7F8",
"KX c #F8F7F9",
"LX c #F6F9F9",
"PX c #FAFAFA",
"IX c #FBF5F5",
"UX c None",
/* pixels */
"UXUXUXUXUXUXUXUXUXUXUXUXUXUXUXUXUXUXUXUXUXUXUXUXUXUXJXJXJXHXHXHXJXHXHXJXJXJXUXUXUXUXUXUXUXUXUXUXUXUXUXUXUXUXUXUXUXUXUXUXUXUXUXUX",
"UXUXUXUXUXUXUXUXUXUXUXUXUXUXUXUXUXUXUXUXUXUXLXHXJXHXAXBXBXBXBXmXmXAXBXBXBXAXHXJXJXJXUXUXUXUXUXUXUXUXUXUXUXUXUXUXUXUXUXUXUXUXUXUX",
"UXUXUXUXUXUXUXUXUXUXUXUXUXUXUXUXUXUXUXUXJXHXBXmXmXBXBXBXmXmXBXAXAXmXmXmXmXmXmXmXBXZXHXHXUXUXUXUXUXUXUXUXUXUXUXUXUXUXUXUXUXUXUXUX",
"UXUXUXUXUXUXUXUXUXUXUXUXUXUXUXUXUXJXJXHXBXBXmXBXmXmXmXmXmXmXOX).).sXmXmXmXmXmXmXBXmXBXZXHXHXJXUXUXUXUXUXUXUXUXUXUXUXUXUXUXUXUXUX",
"UXUXUXUXUXUXUXUXUXUXUXUXUXUXUXUXHXAXBXmXmXmXmXmXmXBXmXmXnX9.@.o.o.@.0.nXBXBXmXmXBXmXmXmXmXBXHXHXUXUXUXUXUXUXUXUXUXUXUXUXUXUXUXUX",
"UXUXUXUXUXUXUXUXUXUXUXUXUXUXJXHXBXmXBXBXmXmXmXmXBXmXmXmX].O.o.o.o.o.O.).nXmXBXBXmXmXmXBXmXmXmXBXHXJXUXUXUXUXUXUXUXUXUXUXUXUXUXUX",
"UXUXUXUXUXUXUXUXUXUXUXUXUXHXBXBXmXBXmXmXmXBXBXmXpX].7.:.@.o.o.o.o.o.o.@.*.2./.OXnXZXBXmXBXmXmXmXmXBXHXUXUXUXUXUXUXUXUXUXUXUXUXUX",
"UXUXUXUXUXUXUXUXUXUXUXJXHXmXBXmXmXmXBXBXBXhX].<.#.o.o.o.o.o.o.o.o.o.o.o.o.o.o.+.*.9.pXmXBXmXmXBXBXmXBXHXJXUXUXUXUXUXUXUXUXUXUXUX",
"UXUXUXUXUXUXUXUXUXUXJXAXBXmXmXmXmXmXAXhX(.%.O.o.o.o.o.o.o.o.o.o.o.o.o.O.O.o.o.o.o.o.#.4.OXmXBXmXBXmXmXBXDXJXUXUXUXUXUXUXUXUXUXUX",
"UXUXUXUXUXUXUXUXUXJXDXmXBXBXBXBXAXnX].%.o.o.o.o.O.%.4.'./.@.o.o.o.o.+./.].8.:...o.o.o.o.@.8.hXBXmXmXBXBXBXAXJXUXUXUXUXUXUXUXUXUX",
"UXUXUXUXUXUXUXUXJXFXBXBXmXpX}.XXsX2.O.o.o.o.#.6.}.fXxXxXxX'.$.O.O.&.'.vXxXxXgXOX9.*.O.o.o.o.%.}.XX}.pXmXBXmXHXHXUXUXUXUXUXUXUXUX",
"UXUXUXUXUXUXUXHXAXBXmXjX6.#.O.+.@.o.o.o.#.8.pXxXxXcXmXxXxXxXaX}.}.aXxXxXnXbXxXmXcXfX'.*.o.o.o.O.+.O.@.6.jXmXBXAXJXUXUXUXUXUXUXUX",
"UXUXUXUXUXUXUXHXmXmXZX8.o.o.o.o.o.o.O.1.OXmXmXnXmXxXmXmXnXnXmXmXmXmXSXnXnXmXmXnXmXmXmXhX0.@.o.o.o.o.o.o.6.mXBXmXHXUXUXUXUXUXUXUX",
"UXUXUXUXUXUXHXBXBXAXdX#.o.o.o.o.o.o.5.nXmXmXmXmXmXmXmXmXSXSXmXmXmXmXmXmXmXmXnXmXmXmXmXmXBX9.o.o.o.o.o.o.#.pXBXmXBXHXUXUXUXUXUXUX",
"UXUXUXUXUXJXAXmXmXBXOXO.o.o.o.o.o.o.0.ZXmXmXmXmXmXmXmXmXmXmXmXmXmXmXmXmXmXmXmXmXmXmXmXmXBX0.o.o.o.o.o.o.O..XBXmXBXBXHXUXUXUXUXUX",
"UXUXUXUXUXAXmXmXmXBXpX@.o.o.o.o.o.o._.ZXmXFXSXmXmXmXmXmXmXmXSXmXmXmXmXmXmXmXmXSXmXmXmXmXAX[.o.o.o.o.o.o.@.sXBXmXBXmXHXUXUXUXUXUX",
"UXUXUXUXHXBXBXmXmXBXdX$.o.o.o.o.o.$.dXFXBXmXSXmXBXmXSXmXmXFXBXBXmXmXBXBXmXmXBXBXBXmXmXBXHXdX&.o.o.o.o.o.+.|.AXmXmXmXBXHXUXUXUXUX",
"UXUXUXUXFXBXmXmXmXmX6.o.o.o.o.o.$. XBXBXFXBXZXFXBXFXFXBXBXFXBXFXFXSXBXFXFXBXFXFXSXFXFXBXBXDX X$.o.o.o.o.o.%.hXmXmXBXBXAXUXUXUXUX",
"UXUXUXHXmXmXBXmXBX}.+.o.o.5._.{.hXHXZXZXFXHXFXHXDXHXDXFXFXFXFXFXFXFXFXFXFXFXHXDXFXFXFXHXFXFXBXhX{._._.#.o.o.6.mXmXmXmXmXHXUXUXUX",
"UXUXUXHXmXBXmXmXbX;.o.o.:.nXHXAXFXFXHXtXT.T.T.Z.T.T.T.vXFXFXFXDXFXFXFXFXmXT.K.T.T.T.T.T.6XHXBXHXAXAXAX`.o.o.X.#XAXmXmXBXAXUXUXUX",
"UXUXFXmXBXmXBXmXz.o ( ...XHXZXHXFXDXHX1Xt w t t t t t 1XHXFXFXFXHXFXFXHX7Xy t t t w t q V.HXHXFXHXHXHXlX=.` , t.mXmXmXBXBXHXUXUX",
"UXUXHXBXmXmXmXmXm + % e.FXHXFXFXHXHXHX1Xy w t t t t t 1XHXHXHXAXFXHXDXHX7Xy t t t t t q V.HXDXHXHXAXFXHX+XO + : =XSXmXmXBXFXUXUX",
"UXUXFXmXmXBXmX$X= + - &XGXAXHXZXDXHXHX1Xt e t q t t t 1XHXHXHXHXDXHXHXHX7Xy e e e t t q V.HXHXHXHXHXHXHXNX0 + # i.mXmXmXmXBXHXUX",
"UXHXBXmXmXmXmXa.# + m AXHXHXHXHXDXHXHX1Xt t t t t t t 1XHXHXAXHXHXHXHXHX6Xy e t t t e e V.HXFXHXHXZXFXHXHXh.# + 7 cXBXmXmXBXHXUX",
"UXHXBXmXmXZXcX9 + # h.LXHXHXHXZXHXHXJX1Xt t t t t t t 2XJXHXHXHXHXHXHXJX7Xy e e t e t e V.HXHXHXFXHXAXHXJX,X> + & $XBXBXmXBXZXUX",
"UXBXBXmXmXSX=X= + : ,XJXHXHXHXZXDXHXJX1Xt t t t t t t 1XJXHXHXHXHXHXHXHX7Xy e t t t t q V.JXHXFXZXFXHXJXHXIXy.+ # g.ZXmXmXmXBXUX",
"FXBXmXmXmXSXk.# + 0 BXJXHXHXHXFXFXDXHX1Xt t e t t t t 2XJXHXHXHXJXHXHXJX7Xy e t t e e e C.HXFXFXZXHXHXHXHXLXg.+ + y.mXmXmXBXBXFX",
"FXBXmXmXmXSXi.# + p.JXJXJXHXHXZXFXFXFXvXD e t t t t t 1XIXHXJXJXHXJXHXJX8Xy e t e e e A 6XBXBXFXFXHXHXHXJXLX&X% + 7 cXZXmXBXBXFX",
"FXBXmXBXcXk.6 # + p.IXJXJXHXHXHXFXBXmXmXR z e e t t y 1XLXHXHXHXJXHXJXJX8Xy e e t w z T bXmXZXFXFXHXHXHXJXHXk.; # & f.cXmXmXmXFX",
"FXmXBXmXs.% # # # & h.LXJXHXHXHXFXFXmXmXW a x e t t t 1XLXLXJXJXJXJXJXJX8Xy e t e M i U bXZXZXFXHXHXHXJXJXh.& # # # % s.BXmXBXFX",
"BXmXmX*X: # # % # # 3 ,XJXHXHXHXFXFXFXmXW p d Z r w t 1XLXJXJXJXJXHXJXLX8Xy w t V a p Y bXZXFXFXFXHXHXJXMX2 # # # # # : =XFXBXmX",
"FXBXSXl.% # # # # # # %XLXJXHXHXHXFXBXmXQ p p p i N w 1XLXKXIXJXIXJXJXLX8Xy N H f p p Y bXZXZXZXHXHXJXLX%X% # # # # # # k.FXmXFX",
"mXZXSXl.# # # # # # % %XPXHXHXHXHXFXZXmXQ p f f f s M 1XPXIXPXLXLXLXLXPX8XB i p p f p U mXBXFXHXHXJXHXLX%X; # # # # # # l.ZXBXmX",
"FXmXmX:X6 # # # # # 4 MXLXJXJXHXHXFXZXmXQ p f f f f g 0XLXPXLXPXLXIXIXPXuXJ p p f f p U bXFXFXHXHXHXJXLXMX4 $ # % # # : :XBXmXZX",
"mXZXBXmXf.& + # # - c.PXIXJXHXHXHXFXBXBXQ p f f f f f !.PXPXPXPXLXPXPXLXuXg f f f f p U NXFXFXFXHXHXJXJXPXc.> $ # # & g.mXmXBXmX",
"BXmXmXmXmXU.7 # + i.PXPXLXJXJXJXHXHXHXAXQ p f f f f f !.PXPXPXPXLXLXPXPXwXg p f p p p U bXZXHXHXHXJXJXJXPXPXc.; # : l.mXmXBXmXmX",
"mXmXmXmXmXFXs.+ + u.PXPXLXLXIXHXHXHXFXZX^ p p f f f f E.PXPXPXPXPXPXPXPXwXg p p p f p U mXFXHXHXHXJXIXLXLXPX%X; + 9 mXmXmXmXmXmX",
"mXmXmXZXBXBXz.% + 8 VXPXLXLXJXJXJXFXHXFXA.p p p p f f S.PXPXPXPXPXPXPXPXE.g f p p p p Q BXFXDXHXHXJXLXLXPXPXa.+ + t.BXmXBXmXmXSX",
"UXmXBXmXmXAX:X> + * <XPXKXIXKXHXHXHXFXHX4Xv w.) _ { } -.kXPXPXPXPXPXPXzX>.[ { _ ) w.v L.AXHXHXHXHXJXJXLXPXIX0 + # d.SXmXmXBXBXUX",
"UXmXmXmXmXBXmXb j h J.JXHXDXDXDXZXZXmXZXhX&.o.o.o.o.o.o.3.GXPXPXPXPXLXq.o.o.o.o.o.o.+.XXBXBXBXBXAXAXAXZXJX4Xl j k *XBXmXmXmXBXUX",
"UXBXBXmXmXBXFXV.q q S vXmXmXmXmXmXmXBXmXmX2.o.o.o.o.o.o.o.,.NXPXPXVX^.+.o.o.o.o.o.o.=.jXBXmXmXmXmXmXmXmXBXm.q q G xXmXmXBXmXmXUX",
"UXUXmXmXmXmXFX5Xu q t T.DXmXmXmXmXmXmXmXBX X+.o.o.o.o.o.| . 5 0 y.5 < / o.o.o.o.o.o.[.BXmXmXmXBXmXBXmXFX8XA w t C.HXmXBXmXmXUXUX",
"UXUXBXmXmXmXmXmXn.q q F vXBXmXBXmXBXmXmXBXnX6.o.o.o.o.|   $ # + @ $ $ X ] o.o.o.O.:.nXDXBXmXmXmXBXmXBXmXB.w e A 9XBXmXmXBXmXUXUX",
"UXUXmXmXBXmXmXFX2Xy t t C.DXmXmXmXmXmXBXBXBXjX<.o.o. .  $ % % # % $ ; $ X ' o.o.*.sXBXmXmXmXmXmXmXmXFX6Xu q e N.BXBXmXmXmXmXUXUX",
"UXUXUXmXmXBXmXmXmXn.q e A 6XDXmXFXmXmXmXmXBXBXdX:./ , $ # # # # # # # # @ o ` *.sXDXmXmXmXmXmXDXDXBXmXb.q q A 9XmXBXmXBXmXUXUXUX",
"UXUXUXmXmXmXBXmXDX5Xu t t F m.B.3XmXBXmXmXmXBXBXfXr.$ # # % # # # # # # # $ 1 @XDXDXmXmXmXBXmX5XB.m.M.t q t C.BXmXmXmXmXmXUXUXUX",
"UXUXUXUXmXBXmXmXmXBXC.t t t q q y Z.mXBXmXBXBXmXxX>Xx.y.6 & % # # # & 2 0 d.>XxXcXmXmXDXmXmXZ.u q q e t t b.xXmXmXmXmXmXUXUXUXUX",
"UXUXUXUXmXmXmXmXmXmXvXS q t w t w u 3XBXmXBXnXxXxXxXjXxX;XU.j.g.g.d.x.;XxXnXxXxXxXmXmXmXDX5Xu w e t t e y 3XBXmXmXBXBXmXUXUXUXUX",
"UXUXUXUXUXBXmXBXmXmX5Xy w t w t e e V.DXBXmXmXxXxXxXnXxXnXnXnXxXnXmXnXnXxXxXxXxXxXxXmXmXBXV.e e t t t e u 5XDXmXmXBXmXUXUXUXUXUX",
"UXUXUXUXUXmXmXmXmXBX2Xy t t t t e e m.DXmXcXxXnXxXxXxXmXcXxXmXxXxXxXxXxXnXxXmXxXcXxXxXmXDXB.e e e t t e t 2XDXmXmXmXmXUXUXUXUXUX",
"UXUXUXUXUXUXnXmXmXmX9XA e t t t e e G eXmXmXnXxXnXxXmXxXmXnXxXmXmXmXmXxXmXnXnXmXnXmXnXmXcXn.e e t t t e u 9XmXmXmXmXUXUXUXUXUXUX",
"UXUXUXUXUXUXUXmXBXmXBXB.t q e q e e V Y P.xXmXmXmXmXmXmXnXmXmXSXSXmXmXxXmXmXnXmXmXmXmX0XW C e q q e e t N.mXmXmXcXUXUXUXUXUXUXUX",
"UXUXUXUXUXUXUXUXmXmXBXnXB.S y u D Z d p g E Y.bXmXFXFXBXFXBXqXR.P.qXmXSXBXmXmXSXmX0XA.g p f C A u y A B.cXDXmXmXUXUXUXUXUXUXUXUX",
"UXUXUXUXUXUXUXUXxXmXmXDXBX9X3X6XvXF.L p p p g Y G.qXCXHXAXF.L f f K H.FXHXAXuXR.W K f f p g ~ eX6X3XtXmXDXmXmXmXUXUXUXUXUXUXUXUX",
"UXUXUXUXUXUXUXUXUXnXmXmXmXmXDXBXmXmXqX~ g p p f p g U ~ D.g p f f p g D.D.! P f p p p f Y Y.mXDXBXDXBXmXmXmXxXUXUXUXUXUXUXUXUXUX",
"UXUXUXUXUXUXUXUXUXUXcXmXmXBXmXmXmXmXmXbX~.^ K p p p p p p p f f f f f p p p p p p g E P.yXmXmXmXmXmXmXmXmXxXUXUXUXUXUXUXUXUXUXUX",
"UXUXUXUXUXUXUXUXUXUXUXUXmXmXmXmXmXBXmXBXBXmXqXG.E K d f p f f f f f p p p p g Y A.~.bXBXmXBXmXBXmXBXmXmXUXUXUXUXUXUXUXUXUXUXUXUX",
"UXUXUXUXUXUXUXUXUXUXUXUXUXmXmXmXmXmXmXmXmXmXBXBXmXqXI.D.U p f f f p p P A.P.0XyXBXBXmXmXmXmXmXBXmXBXxXUXUXUXUXUXUXUXUXUXUXUXUXUX",
"UXUXUXUXUXUXUXUXUXUXUXUXUXUXxXmXmXmXmXmXmXmXmXmXmXmXBXSXY.g p p f p g Q.BXZXZXZXmXmXmXmXmXmXmXmXnXmXUXUXUXUXUXUXUXUXUXUXUXUXUXUX",
"UXUXUXUXUXUXUXUXUXUXUXUXUXUXUXUXxXmXmXBXmXmXBXmXmXmXBXBXmXF.P p f P F.mXBXmXmXmXmXmXmXmXmXBXmXxXUXUXUXUXUXUXUXUXUXUXUXUXUXUXUXUX",
"UXUXUXUXUXUXUXUXUXUXUXUXUXUXUXUXUXUXmXmXmXBXmXmXmXmXmXmXmXmXrXY.Y.rXmXmXmXmXmXmXmXmXmXmXmXmXUXUXUXUXUXUXUXUXUXUXUXUXUXUXUXUXUXUX",
"UXUXUXUXUXUXUXUXUXUXUXUXUXUXUXUXUXUXUXUXxXxXmXmXmXBXBXmXBXmXmXFXSXBXmXBXmXBXmXBXmXmXmXxXUXUXUXUXUXUXUXUXUXUXUXUXUXUXUXUXUXUXUXUX",
"UXUXUXUXUXUXUXUXUXUXUXUXUXUXUXUXUXUXUXUXUXUXUXmXxXmXmXmXmXmXmXmXmXmXmXmXmXmXnXmXmXUXUXUXUXUXUXUXUXUXUXUXUXUXUXUXUXUXUXUXUXUXUXUX",
"UXUXUXUXUXUXUXUXUXUXUXUXUXUXUXUXUXUXUXUXUXUXUXUXUXUXUXxXnXxXxXmXnXnXcXnXxXUXUXUXUXUXUXUXUXUXUXUXUXUXUXUXUXUXUXUXUXUXUXUXUXUXUXUX"
};
