/* XPM */
static char *bitcoin16[] = {
/* columns rows colors chars-per-pixel */
"16 16 184 2 ",
"   c #E8736F",
".  c #E77471",
"X  c #E67572",
"o  c #E87471",
"O  c #E87673",
"+  c #75C55D",
"@  c #76C65E",
"#  c #7AC761",
"$  c #7DC865",
"%  c #81CA6B",
"&  c #83CB6E",
"*  c #8DCF7B",
"=  c #A1CF76",
"-  c #A6CF7D",
";  c #A3D17C",
":  c #C1C757",
">  c #C5C85B",
",  c #FCC846",
"<  c #FBC94B",
"1  c #F1CF5E",
"2  c #F9CD5C",
"3  c #F9CD5D",
"4  c #F1D165",
"5  c #F7D274",
"6  c #F7D275",
"7  c #F7D377",
"8  c #259FCD",
"9  c #289DCB",
"0  c #07AEE4",
"q  c #08AFE4",
"w  c #32BAE5",
"e  c #33BBE5",
"r  c #7FC6DF",
"t  c #4AC1E7",
"y  c #4CC2E7",
"u  c #4EC2E7",
"i  c #56C3E6",
"p  c #58C4E6",
"a  c #5CC4E5",
"s  c #51C3E8",
"d  c #72CBE7",
"f  c #7ECDE5",
"g  c #78CDE8",
"h  c #7ACFEA",
"j  c #C1838B",
"k  c #C68389",
"l  c #CC989C",
"z  c #CC9A9F",
"x  c #ED8F8D",
"c  c #EF908E",
"v  c #ED928F",
"b  c #EF9391",
"n  c #C7AFB5",
"m  c #C8ABB1",
"M  c #EBAEAC",
"N  c #F0A5A2",
"B  c #F0AEAC",
"V  c #E1B3A4",
"C  c #E5B6AE",
"Z  c #E3BBAD",
"A  c #EBB7B5",
"S  c #E6BEB8",
"D  c #94CF81",
"F  c #92D080",
"G  c #96D084",
"H  c #96D185",
"J  c #9AD389",
"K  c #94C193",
"L  c #95C297",
"P  c #A1CF8C",
"I  c #A2CF8E",
"U  c #B1C487",
"Y  c #B5C58A",
"T  c #A8D080",
"R  c #AFD9A2",
"E  c #B5DBA9",
"W  c #E1D997",
"Q  c #E0DA9D",
"!  c #F5D991",
"~  c #F5DA93",
"^  c #F3DEAA",
"/  c #F3DFAD",
"(  c #82CEE5",
")  c #89CAE0",
"_  c #82D1EA",
"`  c #8ED3E9",
"'  c #92D4E9",
"]  c #AEDCEA",
"[  c #AEDDEB",
"{  c #B0DCEA",
"}  c #B1DDEB",
"|  c #B6DFE8",
" . c #B6DFE9",
".. c #ECD2D1",
"X. c #EDD9D8",
"o. c #EDDDDC",
"O. c #EDDEDD",
"+. c #CDE2C6",
"@. c #CEE3C7",
"#. c #CEE3C8",
"$. c #CEE3C9",
"%. c #CFE3C9",
"&. c #D0E3C9",
"*. c #DCE4D4",
"=. c #DCE9D7",
"-. c #DDE9D7",
";. c #DDEAD7",
":. c #DEE9DB",
">. c #DFEBDB",
",. c #DFEADC",
"<. c #EDE7D7",
"1. c #EFE8D6",
"2. c #E1E6DB",
"3. c #EDE7DB",
"4. c #E1ECDB",
"5. c #E1E9DD",
"6. c #EEE8DA",
"7. c #EEEBDC",
"8. c #EEECDF",
"9. c #F0E7D3",
"0. c #F2ECDD",
"q. c #C5E2EB",
"w. c #C9E3EB",
"e. c #D6E8ED",
"r. c #DCE8ED",
"t. c #DFEFF1",
"y. c #E9E3E1",
"u. c #E5EBE3",
"i. c #E6EAE4",
"p. c #EFEDE5",
"a. c #E0E9ED",
"s. c #E0E9EE",
"d. c #E2EAEE",
"f. c #E4EAEE",
"g. c #E3ECEE",
"h. c #EAEAEB",
"j. c #EBEAEB",
"k. c #EAECEC",
"l. c gray93",
"z. c #EEEDED",
"x. c #ECECEE",
"c. c #EEEDEE",
"v. c #EFEDEF",
"b. c #EDEEEE",
"n. c #EFEEEE",
"m. c #EEEFEE",
"M. c #EFEEEF",
"N. c #EFEFEF",
"B. c #F2EDE1",
"V. c #F0EEE8",
"C. c #F0ECEC",
"Z. c #F1EDED",
"A. c #F0EEEE",
"S. c #F1EEEE",
"D. c #F0EEEF",
"F. c #F1EEEF",
"G. c #EDF0EC",
"H. c #EEF0EE",
"J. c #EEF2EE",
"K. c #F5F0EF",
"L. c #E9EEF1",
"P. c #ECEDF0",
"I. c #EFEDF0",
"U. c #F0EDF0",
"Y. c #E3F1F3",
"T. c #EEF0F0",
"R. c #EFF1F1",
"E. c #EFF1F2",
"W. c #F0F3F0",
"Q. c #F3F2F3",
"!. c #F4F1F0",
"~. c #F5F1F0",
"^. c #F6F1F0",
"/. c #F7F2F0",
"(. c #F0F4F0",
"). c #F2F5F2",
"_. c #F5F4F5",
"`. c #F4F5F6",
"'. c #F4F5F7",
"]. c #F5F7F7",
"[. c #F8F7F1",
"{. c #F8F7F3",
"}. c #F5F7F8",
"|. c None",
/* pixels */
"|.|.|.|.|./.Q.e.e.K./.|.|.|.|.|.",
"|.|.|./.Z.w.' w w ` q.l./.|.|.|.",
"|.|.g.{ g i f a a ( p d [ a.|.|.",
"|./.{ q t r.l.k.k.Z.a.y q [ /.|.",
"|.Z.) y | -.>.l.l.,.-.| s r Z.|.",
"E.X.l f.4.& G J.J.J % -.L.z ..E.",
"E.A N `.>.$ * J.Q.* # -.`.B M E.",
"O.o x Q.8.> = (.`.; : 7.Q.v   o.",
"O.o c `.B.< 1 [.{.4 , 0.`.b o O.",
"E.S V }.p.Y L t.Y.L U p.}.Z C E.",
"Z.2.I 5.Z._ 8 j k 9 h Z.u.I *.l.",
"|.l.E D &.a.n X o m a.&.G R l.|.",
"|.U.#.@ - 1.k.y.y.j.3.- @ +.U.|.",
"|.|.i.#.Q 6 ! 6 7 ~ 6 W #.i.|.|.",
"|.|.|.I.l.1./ 3 3 ^ 1.l.I.|.|.|.",
"|.|.|.|.|.l.L.6.6.I.l.|.|.|.|.|."
};
